<?xml version="1.0" standalone="no"?>
<!DOCTYPE svg PUBLIC "-//W3C//DTD SVG 20010904//EN"
 "http://www.w3.org/TR/2001/REC-SVG-20010904/DTD/svg10.dtd">
<svg version="1.0" xmlns="http://www.w3.org/2000/svg"
 width="200.000000pt" height="200.000000pt" viewBox="0 0 1000.000000 1000.000000"
 preserveAspectRatio="xMidYMid meet">
<g transform="translate(0.000000,1000.000000) scale(0.100000,-0.100000)"
fill="#073D55" stroke="none">
<path d="M2178 8768 c-727 -1258 -1137 -1968 -1644 -2845 l-533 -923 233 -402
c127 -222 690 -1196 1250 -2165 l1018 -1763 2498 0 2497 0 681 1177 c374 648
937 1622 1251 2166 l570 987 -830 1438 c-457 790 -1020 1764 -1251 2165 l-421
727 -2497 0 -2497 0 -325 -562z m2917 -1148 c738 -54 1275 -268 1670 -666 437
-439 655 -1079 657 -1929 1 -408 -42 -697 -151 -1017 -282 -831 -967 -1397
-1906 -1578 -274 -52 -287 -53 -1277 -57 l-928 -4 0 2630 0 2631 898 0 c511 0
957 -4 1037 -10z"/>
<path class="logo" d="M4220 5000 l0 -1613 358 6 c366 6 456 13 623 47 555 113 927 459
1068 992 56 211 65 287 65 583 0 298 -12 415 -65 623 -128 499 -437 797 -949
912 -176 40 -310 51 -712 57 l-388 6 0 -1613z"/>
</g>
</svg>
