<?xml version="1.0" standalone="no"?>
<!DOCTYPE svg PUBLIC "-//W3C//DTD SVG 20010904//EN"
 "http://www.w3.org/TR/2001/REC-SVG-20010904/DTD/svg10.dtd">
<svg version="1.0" xmlns="http://www.w3.org/2000/svg"
 width="204.000000pt" height="204.000000pt" viewBox="0 0 204.000000 204.000000"
 preserveAspectRatio="xMidYMid meet">
<metadata>
Created by potrace 1.13, written by Peter Selinger 2001-2015
</metadata>
<g transform="translate(0.000000,204.000000) scale(0.100000,-0.100000)"
fill="#000000" stroke="none">
<path d="M0 1020 l0 -1020 1020 0 1020 0 0 1020 0 1020 -1020 0 -1020 0 0
-1020z m1229 779 c272 -69 488 -271 582 -546 32 -94 33 -105 34 -248 0 -179
-12 -233 -85 -382 -40 -81 -67 -119 -131 -187 -115 -122 -283 -226 -364 -226
-32 0 -34 10 -37 195 -3 133 -5 154 -25 187 l-21 37 41 6 c119 21 216 76 265
152 78 122 84 333 11 434 -20 29 -23 44 -23 135 -1 126 -8 138 -76 123 -25 -6
-74 -26 -109 -45 -63 -34 -64 -35 -120 -23 -71 16 -229 16 -303 0 -54 -12 -57
-11 -105 18 -59 36 -161 67 -175 53 -23 -23 -36 -153 -19 -196 5 -14 -2 -33
-25 -67 -34 -51 -54 -122 -54 -192 0 -56 25 -167 45 -207 46 -89 148 -158 268
-181 31 -7 57 -13 57 -15 0 -2 -9 -18 -20 -36 -11 -18 -20 -41 -20 -51 0 -39
-122 -51 -177 -17 -18 11 -48 41 -67 67 -19 27 -48 56 -64 66 -32 18 -102 24
-102 8 0 -5 17 -23 37 -40 21 -17 56 -63 78 -103 54 -97 97 -123 207 -123 l76
0 4 -75 c3 -41 1 -83 -4 -93 -13 -26 -56 -21 -138 19 -469 225 -624 808 -325
1229 98 139 260 258 418 310 151 48 312 53 466 14z m-694 -1189 c3 -5 1 -10
-4 -10 -6 0 -11 5 -11 10 0 6 2 10 4 10 3 0 8 -4 11 -10z m35 -51 c0 -6 -4 -7
-10 -4 -5 3 -10 11 -10 16 0 6 5 7 10 4 6 -3 10 -11 10 -16z m48 -48 c3 -8 -1
-12 -9 -9 -7 2 -15 10 -17 17 -3 8 1 12 9 9 7 -2 15 -10 17 -17z m62 -31 c0
-5 -7 -10 -15 -10 -8 0 -15 5 -15 10 0 6 7 10 15 10 8 0 15 -4 15 -10z m130 0
c0 -5 -7 -10 -15 -10 -8 0 -15 5 -15 10 0 6 7 10 15 10 8 0 15 -4 15 -10z
m-70 -10 c0 -5 -7 -10 -15 -10 -8 0 -15 5 -15 10 0 6 7 10 15 10 8 0 15 -4 15
-10z"/>
</g>
</svg>
