<?xml version="1.0" standalone="no"?>
<!DOCTYPE svg PUBLIC "-//W3C//DTD SVG 20010904//EN"
 "http://www.w3.org/TR/2001/REC-SVG-20010904/DTD/svg10.dtd">
<svg version="1.0" xmlns="http://www.w3.org/2000/svg"
 width="200.000000pt" height="200.000000pt" viewBox="0 0 207.000000 207.000000"
 preserveAspectRatio="xMidYMid meet">
<g transform="translate(0.000000,207.000000) scale(0.100000,-0.100000)"
fill="#0173B3" stroke="none">
<path d="M0 1035 l0 -1035 1035 0 1035 0 0 1035 0 1035 -1035 0 -1035 0 0
-1035z m533 731 c82 -34 131 -130 107 -209 -19 -64 -84 -123 -144 -132 -64
-10 -128 16 -170 68 -28 35 -31 46 -31 106 0 59 4 72 29 105 50 66 138 92 209
62z m1021 -475 c74 -32 114 -69 146 -135 47 -96 53 -151 54 -506 l1 -325 -155
0 -155 0 -5 310 c-5 336 -8 354 -64 390 -55 36 -163 26 -205 -19 -51 -55 -55
-81 -59 -394 l-4 -292 -154 0 -154 0 2 488 3 487 145 0 145 0 3 -62 3 -62 35
39 c75 83 154 112 286 106 57 -3 103 -11 132 -25z m-934 -481 l0 -490 -155 0
-155 0 0 483 c0 266 3 487 7 490 3 4 73 7 155 7 l148 0 0 -490z"/>
</g>
</svg>
